HIERARCHY
ROOT Hips
{
	OFFSET 0.00000 0.00000 0.00000
	CHANNELS 6 Xposition Yposition Zposition Yrotation Zrotation Xrotation 
	JOINT Lumbar
	{
		OFFSET 0 0 0
		CHANNELS 3 Zrotation Xrotation Yrotation
		JOINT Neck
		{
			OFFSET 0.00 0.2701 0.00
			CHANNELS 3 Zrotation Xrotation Yrotation
			End Site
			{
				OFFSET 0.00 0.1379 0.00
			}
		}
		JOINT RightShoulder
		{
			OFFSET 0.0119 0.2289 0.1181
			CHANNELS 3 Zrotation Xrotation Yrotation
			JOINT RightElbow
			{
				OFFSET 0.00 -0.1475 0.00
				CHANNELS 2 Zrotation Yrotation
				JOINT RightWrist
				{
					OFFSET 0.00 -0.1605 0.00
					CHANNELS 2 Zrotation Xrotation
					End Site
					{
						OFFSET 0.0040 -0.1068 0.0006
					}
				}
			}
		}
		JOINT LeftShoulder
		{
			OFFSET 0.0119 0.2289 -0.1181
			CHANNELS 3 Zrotation Xrotation Yrotation
			JOINT LeftElbow
			{
				OFFSET 0.00 -0.1475 0.00
				CHANNELS 2 Zrotation Yrotation
				JOINT LeftWrist
				{
					OFFSET 0.00 -0.1605 0.00
					CHANNELS 2 Zrotation Xrotation
					End Site
					{
						OFFSET 0.0040 -0.1068 -0.0006
					}
				}
			}
		}
	}
	JOINT RightHip
	{
		OFFSET 0.0316 -0.0424 0.0458
		CHANNELS 3 Zrotation Xrotation Yrotation
		JOINT RightKnee
		{
			OFFSET 0.00 -0.2438 0.00
			CHANNELS 1 Zrotation
			JOINT RightAnkle
			{
				OFFSET 0.00 -0.2449 0.00
				CHANNELS 3 Zrotation Xrotation Yrotation
				End Site
				{
					OFFSET 0.1237 -0.0542 0.0051
				}
			}
		}
	}
	JOINT LeftHip
	{
		OFFSET 0.0316 -0.0424 -0.0458
		CHANNELS 3 Zrotation Xrotation Yrotation
		JOINT LeftKnee
		{
			OFFSET 0.00 -0.2438 0.00
			CHANNELS 1 Zrotation
			JOINT LeftAnkle
			{
				OFFSET 0.00 -0.2449 0.00
				CHANNELS 3 Zrotation Xrotation Yrotation
				End Site
				{
					OFFSET 0.1237 -0.0542 -0.0051
				}
			}
		}
	}
}
MOTION
Frames: 31
Frame Time: 0.02
0.67782 0.4076 0.02688 541.37669 0 1.84372 4.62291 -4.85038 6.02051 -1.82088 -2.87919 -0.14773 8.68855 -4.73422 27.9388 134.30128 158.93849 -39.81534 -21.88699 31.98344 0.68958 -23.19044 7.65357 -89.18624 -11.49772 6.37232 91.7437 4.89349 -5.12795 -116.73301 -6.49953 -0.19612 9.64747 71.41874 8.23516 -0.37232 -65.38912 -15.4104 1.5782 -2.33245
0.67701 0.4081 0.02711 541.54065 0 1.70762 4.54986 -4.76846 5.95132 -1.9654 -2.92958 -0.12687 8.74645 -4.62676 27.77529 134.3013 158.93848 -39.91153 -21.88698 31.80248 0.76333 -23.28639 7.65664 -90.51242 -12.05171 6.50084 90.97995 4.91974 -5.36449 -117.43456 -5.66338 -0.08468 9.47198 71.0909 8.3667 -0.48565 -64.13223 -15.712 1.5842 -2.62458
0.67603 0.40872 0.02733 541.69517 0 1.57076 4.46455 -4.69412 5.88603 -2.10658 -3.01685 -0.08493 8.81642 -4.49457 27.61542 134.30129 158.93848 -40.04989 -21.88698 31.5563 0.85772 -23.52115 7.67479 -92.19434 -12.70716 6.62018 90.10145 5.0066 -5.47161 -118.12298 -4.51397 0.04933 9.10527 70.67089 8.51603 -0.5285 -62.85014 -15.97661 1.58957 -2.85204
0.67512 0.40928 0.02757 541.85299 0 1.43124 4.3837 -4.61422 5.81738 -2.2404 -3.06752 -0.05391 8.88032 -4.38305 27.45592 134.30127 158.93847 -40.17845 -21.88697 31.32863 0.92846 -23.67825 7.68374 -93.66116 -13.29729 6.74951 89.27725 5.06798 -5.62974 -118.81291 -3.51147 0.17475 8.84327 70.287 8.65785 -0.60087 -61.59133 -16.2499 1.59481 -3.10129
0.67425 0.40985 0.02777 542.01706 0 1.30217 4.30792 -4.5411 5.75485 -2.416 -3.20466 -0.01812 8.94996 -4.23074 27.28426 134.30127 158.93846 -40.26341 -21.88697 31.14862 1.0599 -23.8993 7.70202 -95.35469 -13.97126 6.85818 88.43211 5.12042 -5.81814 -119.51985 -2.48238 0.29466 8.50884 69.92603 8.79493 -0.69086 -60.2795 -16.5571 1.60199 -3.38624
0.67325 0.41043 0.02804 542.16463 0 1.15248 4.2182 -4.45648 5.68035 -2.50172 -3.16928 0.01307 9.00885 -4.15822 27.14057 134.30125 158.93846 -40.45103 -21.88697 30.85407 1.0696 -24.01514 7.70468 -96.66041 -14.49293 7.00516 87.6107 5.20495 -5.91357 -120.18788 -1.4421 0.42983 8.27815 69.49565 8.94673 -0.72377 -59.07399 -16.77964 1.60463 -3.5811
0.67195 0.411 0.02843 542.27433 0 0.94011 4.09687 -4.33862 5.57663 -2.34472 -2.65014 0.02623 9.03926 -4.30798 27.06852 134.30125 158.93846 -40.90877 -21.88696 30.25324 0.73878 -23.85797 7.66045 -96.80588 -14.57899 7.27302 86.84781 5.37568 -5.78713 -120.7652 -0.38476 0.61386 8.38834 68.90164 9.13823 -0.62811 -58.16118 -16.84729 1.5984 -3.53021
0.67053 0.41156 0.02889 542.36658 0 0.70831 3.961 -4.2093 5.46013 -2.09579 -1.95564 0.0341 9.05684 -4.53965 27.02589 134.30126 158.93846 -41.46971 -21.88696 29.54043 0.28469 -23.58202 7.60023 -96.55064 -14.50692 7.57693 86.12028 5.57452 -5.57182 -121.30205 0.66184 0.81023 8.60754 68.24122 9.34374 -0.47463 -57.35876 -16.82109 1.5871 -3.39254
0.66917 0.41212 0.02934 542.46298 0 0.48955 3.82955 -4.0852 5.34629 -1.88562 -1.33972 0.04471 9.0777 -4.73673 26.97324 134.30126 158.93846 -41.98559 -21.88696 28.88243 -0.11362 -23.32547 7.54723 -96.4781 -14.49967 7.85555 85.40113 5.75252 -5.39507 -121.84858 1.67101 0.99271 8.77184 67.60654 9.54089 -0.3387 -56.50962 -16.79028 1.57568 -3.30237
0.66775 0.41272 0.02972 542.57481 0 0.25308 3.70783 -3.96084 5.24523 -1.68896 -0.729 0.0549 9.11151 -4.92225 26.90626 134.30126 158.93846 -42.49404 -21.88696 28.20512 -0.51069 -23.21476 7.49425 -96.40881 -14.52274 8.17161 84.57569 5.96656 -5.2199 -122.43 2.86668 1.21046 8.95321 66.98311 9.74673 -0.2362 -55.64137 -16.94877 1.574 -3.17619
0.66644 0.41322 0.03024 542.65078 0 0.04877 3.56141 -3.83472 5.11523 -1.44133 -0.06634 0.06407 9.11297 -5.15106 26.87643 134.30126 158.93846 -43.04326 -21.88696 27.54292 -0.93925 -22.77649 7.43808 -96.24132 -14.44755 8.4182 83.98021 6.11157 -5.02398 -122.93103 3.67115 1.35801 9.12606 66.32702 9.93796 -0.05254 -54.84406 -16.70227 1.55146 -3.10498
0.66539 0.41345 0.03116 542.6292 0 -0.06062 3.35995 -3.70254 4.9019 -1.08441 0.70583 0.07483 9.04703 -5.48442 26.93936 134.30126 158.93846 -43.66778 -21.88696 26.9451 -1.43015 -21.40848 7.36981 -95.82427 -14.10567 8.46581 84.02372 6.05703 -4.77658 -123.20463 3.36297 1.30321 9.26099 65.55098 10.08165 0.3522 -54.17572 -15.26441 1.46717 -3.20869
0.66446 0.41356 0.03222 542.57269 0 -0.13709 3.13238 -3.56987 4.66103 -0.67804 1.52253 0.08401 8.94571 -5.8577 27.03928 134.30126 158.93846 -44.33122 -21.88696 26.36784 -1.94738 -19.72418 7.30008 -95.33278 -13.67555 8.44229 84.29559 5.9319 -4.51502 -123.40099 2.66667 1.17828 9.38219 64.75283 10.2105 0.83413 -53.58184 -13.43956 1.36306 -3.37044
0.6635 0.41372 0.03318 542.53402 0 -0.22973 2.91053 -3.43981 4.43709 -0.288 2.3134 0.09184 8.84779 -6.20953 27.12385 134.30126 158.93846 -44.98529 -21.88696 25.78428 -2.44927 -18.21983 7.23574 -94.92607 -13.3085 8.44987 84.45537 5.84044 -4.27101 -123.64375 2.16912 1.08892 9.50264 63.9962 10.34891 1.27323 -52.98107 -11.85604 1.27159 -3.50496
0.66243 0.41392 0.03426 542.48643 0 -0.31855 2.71416 -3.29858 4.19426 0.08069 3.13481 0.10846 8.80168 -6.57819 27.20276 134.30126 158.93846 -45.61031 -21.88696 25.18281 -2.97047 -16.55932 7.15116 -94.29831 -12.84173 8.4626 84.6518 5.74426 -3.97677 -123.84025 1.57593 0.98427 9.6565 63.10677 10.47708 1.74747 -52.27328 -9.9961 1.16467 -3.64094
0.66162 0.414 0.03514 542.44935 0 -0.40648 2.45861 -3.1815 3.98414 0.50266 3.89985 0.10616 8.64104 -6.92016 27.30249 134.30126 158.93846 -46.30064 -21.88696 24.62637 -3.45515 -15.14953 7.10825 -94.10869 -12.56034 8.44884 84.82518 5.63956 -3.78513 -124.1117 1.09116 0.8948 9.73586 62.48649 10.62144 2.16562 -51.80098 -8.61715 1.0852 -3.78762
0.66147 0.41377 0.03544 542.44971 0 -0.50663 2.04702 -3.12393 3.87374 1.07356 4.50624 0.05479 8.15908 -7.17841 27.44499 134.30126 158.93846 -47.1876 -21.88697 24.17872 -3.83982 -14.51915 7.18387 -95.23533 -12.84353 8.365 84.88344 5.53882 -3.87941 -124.64013 0.98892 0.86313 9.61505 62.64244 10.82661 2.41369 -51.99268 -8.69698 1.08729 -3.96065
0.66159 0.41342 0.03553 542.46178 0 -0.60573 1.57682 -3.092 3.797 1.69291 5.05166 -0.01587 7.56597 -7.40791 27.60781 134.30125 158.93846 -48.13342 -21.88696 23.7786 -4.18469 -14.15151 7.301 -96.79285 -13.31197 8.25909 84.90974 5.43004 -4.07793 -125.24117 1.01108 0.84933 9.41915 63.0655 11.04642 2.60169 -52.41279 -9.26818 1.11751 -4.14102
0.66159 0.41313 0.03571 542.46884 0 -0.70082 1.13264 -3.05333 3.7029 2.28098 5.6194 -0.07978 7.03243 -7.65051 27.76526 134.30127 158.93847 -49.03506 -21.88697 23.36366 -4.54261 -13.65693 7.39712 -98.09493 -13.6751 8.17299 84.94746 5.31786 -4.22996 -125.78861 0.98453 0.82812 9.25527 63.34813 11.25101 2.81442 -52.70619 -9.59107 1.13433 -4.31105
0.66156 0.41282 0.03592 542.47403 0 -0.81355 0.68941 -2.99433 3.61563 2.91154 6.21301 -0.13607 6.45829 -7.89502 27.90885 134.30127 158.93847 -50.01246 -21.88697 22.9191 -4.92346 -13.18013 7.50214 -99.6383 -14.12142 8.0447 85.00581 5.23236 -4.37827 -126.4198 0.91286 0.8015 9.09852 63.70911 11.49034 3.04059 -53.0969 -10.00511 1.15322 -4.51188
0.66166 0.41252 0.03602 542.48552 0 -0.88991 0.23155 -2.98323 3.52364 3.46247 6.73584 -0.21176 5.94421 -8.12743 28.08421 134.3012 158.93846 -50.8446 -21.88696 22.54931 -5.24588 -12.73649 7.59863 -100.79193 -14.44317 7.99801 85.0112 5.09113 -4.55859 -126.89546 0.96793 0.79127 8.91094 63.97214 11.66214 3.22366 -53.34079 -10.35209 1.17452 -4.65046
0.66212 0.41227 0.03587 542.51882 0 -0.8646 -0.2598 -3.10276 3.4005 3.79814 7.09323 -0.34529 5.61155 -8.33923 28.35501 134.3014 158.93849 -51.26976 -21.88699 22.35712 -5.42345 -12.29 7.66032 -100.68074 -14.34509 8.19963 84.8723 4.79104 -4.80801 -126.91856 1.36005 0.82237 8.64169 63.88666 11.63377 3.30019 -53.10035 -10.38679 1.19772 -4.60734
0.6627 0.41204 0.03563 542.55696 0 -0.80318 -0.76215 -3.26874 3.27331 4.04867 7.3785 -0.49614 5.3459 -8.53834 28.6549 134.3011 158.93844 -51.54574 -21.88694 22.24165 -5.54208 -11.87466 7.71215 -100.17655 -14.12086 8.48152 84.68119 4.43681 -5.08499 -126.78404 1.87401 0.86958 8.34674 63.69585 11.53879 3.33533 -52.70816 -10.34026 1.22212 -4.5024
0.66321 0.41181 0.03544 542.58815 0 -0.75944 -1.25467 -3.41045 3.15478 4.32716 7.68659 -0.633 5.05686 -8.73956 28.93254 134.30118 158.93845 -51.88316 -21.88696 22.10232 -5.68322 -11.46691 7.76927 -99.90964 -13.97553 8.7151 84.51663 4.11227 -5.34532 -126.72552 2.3228 0.90954 8.07356 63.56172 11.48118 3.39057 -52.40018 -10.33746 1.24462 -4.43089
0.66377 0.41155 0.03523 542.63939 0 -0.71027 -1.77033 -3.56643 3.00921 4.65275 8.03437 -0.79582 4.73251 -8.95616 29.24755 134.30205 158.93861 -52.24603 -21.88709 21.91828 -5.84139 -10.97786 7.82461 -99.41761 -13.74776 8.99655 84.33904 3.7659 -5.62657 -126.65096 2.8175 0.94995 7.75563 63.39976 11.39459 3.43865 -52.03594 -10.32293 1.27364 -4.33769
0.66426 0.41135 0.03504 542.65034 0 -0.66388 -2.23878 -3.70332 2.91781 4.85927 8.28345 -0.90912 4.50106 -9.1369 29.49323 134.29937 158.93813 -52.52403 -21.88666 21.84486 -5.95016 -10.66019 7.88051 -99.28598 -13.65659 9.19924 84.17676 3.45228 -5.86961 -126.57154 3.24337 0.9928 7.52519 63.26717 11.35175 3.49216 -51.74974 -10.307 1.28921 -4.27421
0.66452 0.41132 0.03493 542.5447 0 -0.63367 -2.58094 -3.77663 2.98339 4.75887 8.27514 -0.8751 4.49235 -9.23239 29.52303 134.30355 158.93887 -52.56356 -21.88733 22.0585 -5.94102 -10.82461 7.94247 -100.32733 -13.99672 9.15092 84.06783 3.2424 -5.99825 -126.51622 3.45407 1.04046 7.54814 63.241 11.45107 3.5747 -51.71586 -10.3069 1.26546 -4.31358
0.66469 0.41135 0.03485 542.39905 0 -0.60755 -2.8736 -3.82888 3.10231 4.54147 8.17072 -0.79164 4.57774 -9.29081 29.48442 134.3019 158.93858 -52.52796 -21.88707 22.38015 -5.88371 -11.15621 8.00475 -101.72862 -14.47361 9.02293 83.97662 3.06753 -6.08729 -126.4613 3.58976 1.08954 7.65933 63.24674 11.59565 3.66362 -51.76464 -10.30582 1.22834 -4.3838
0.66489 0.41135 0.03476 542.27442 0 -0.57985 -3.18421 -3.8903 3.19238 4.37628 8.11229 -0.73496 4.63318 -9.35881 29.48932 134.29104 158.93666 -52.55579 -21.88533 22.65233 -5.84584 -11.39897 8.06525 -102.90799 -14.87153 8.94107 83.87846 2.87647 -6.19549 -126.40654 3.7562 1.13657 7.72694 63.23683 11.71621 3.74751 -51.77458 -10.30282 1.19841 -4.43625
0.66514 0.41136 0.03466 542.13806 0 -0.54986 -3.51454 -3.95508 3.30162 4.21085 8.0417 -0.66103 4.6405 -9.45527 29.44587 134.3269 158.943 -52.46356 -21.89108 22.93033 -5.81588 -11.69665 8.13219 -104.31574 -15.33544 8.8215 83.77352 2.6841 -6.3002 -126.34489 3.94133 1.1902 7.80846 63.22834 11.84927 3.83933 -51.78475 -10.30714 1.16377 -4.50275
0.66527 0.41137 0.03458 542.01644 0 -0.52591 -3.79174 -4.00722 3.38387 4.02096 7.97437 -0.61062 4.76489 -9.48603 29.48265 134.26827 158.93263 -52.59453 -21.88168 23.219 -5.75923 -11.92 8.18608 -105.344 -15.69689 8.75875 83.68797 2.50423 -6.40191 -126.29972 4.06779 1.2301 7.8821 63.22572 11.96758 3.91619 -51.816 -10.29716 1.13581 -4.54767
